# xmcd
#
# Track frame offsets:
#	150
#	26195
#	48772
#	78587
#	97762
#	115905
#	138405
#	154865
#	175047
#	194697
#	214247
#	228525
#	244560
#	268000
#	290062
#	307752
#	325377
#
# Disc length: 4609 seconds
#
# Revision: 0
# Processed by: cddbd v1.5.2PL0 Copyright (c) Steve Scherf et al.
# Submitted via: audiograbber 1.83.01
#
DISCID=ef11ff11
DTITLE=B B King - Deuces Wild
DYEAR=1997
DGENRE=Blues
TTITLE0=If You Love Me
TTITLE1=The Thrill Is Gone
TTITLE2=Rock Me Baby
TTITLE3=Please Send Me Someone To Love
TTITLE4=Baby I Love You
TTITLE5=Ain't Nobody Home
TTITLE6=Pauly's Birthday Boogie
TTITLE7=There Must Be A Better World Somewhere
TTITLE8=Confessin' The Blues
TTITLE9=Hummingbird
TTITLE10=Bring It Home To Me
TTITLE11=Paying The Cost To Be The Boss
TTITLE12=Let The Good Times Roll
TTITLE13=Dangerous Mood
TTITLE14=Keep It Coming
TTITLE15=Cryin' Won't Help You Babe
TTITLE16=Night Life
EXTD=
EXTT0=
EXTT1=
EXTT2=
EXTT3=
EXTT4=
EXTT5=
EXTT6=
EXTT7=
EXTT8=
EXTT9=
EXTT10=
EXTT11=
EXTT12=
EXTT13=
EXTT14=
EXTT15=
EXTT16=
PLAYORDER=
